# xmcd
#
# Track frame offsets: 
#        150
#        24077
#        33690
#        52675
#        62647
#        79045
#        99797
#        108163
#        128083
#        139637
#        151670
#        162706
#        188501
#
# Disc length: 2671 seconds
#
# Revision: 0
# Processed by: cddbd v1.5.2PL0 Copyright (c) Steve Scherf et al.
# Submitted via: ExactAudioCopy v0.99pb4
#
DISCID=8f0a6d0d
DTITLE=Peter Jacoby and "Blues and Ballads" - I Could Cry Vor Lauta Blues
DYEAR=1974
DGENRE=Blues
TTITLE0=Kini Faruk
TTITLE1=Giasing Giasing
TTITLE2=Westend
TTITLE3=Zyankalischorsch
TTITLE4=Holzhammerlied
TTITLE5=Niederwammerln
TTITLE6=Buchhalters Rache
TTITLE7=Müllmenschblues
TTITLE8=Krokodilos
TTITLE9=Konkurrenz
TTITLE10=Scheißhausblues
TTITLE11=Danz Da Burschoasy
TTITLE12=Vilshofener Walz
EXTD=
EXTT0=
EXTT1=
EXTT2=
EXTT3=
EXTT4=
EXTT5=
EXTT6=
EXTT7=
EXTT8=
EXTT9=
EXTT10=
EXTT11=
EXTT12=
PLAYORDER=
